<svg fill="#0e8281" width="120px" height="120px" viewBox="0 0 56 56" id="Layer_1" version="1.1" xml:space="preserve" xmlns="http://www.w3.org/2000/svg" xmlns:xlink="http://www.w3.org/1999/xlink" stroke="#0e8281" stroke-width="0.392"><g id="SVGRepo_bgCarrier" stroke-width="0"></g><g id="SVGRepo_tracerCarrier" stroke-linecap="round" stroke-linejoin="round"></g><g id="SVGRepo_iconCarrier"> <g> <path d="M52.1,47.1l-6.8-17.8c-0.1-0.4-0.5-0.6-0.9-0.6H11.6c-0.4,0-0.8,0.3-0.9,0.6L3.9,47.1C3.8,47.4,3.9,47.7,4,48 c0.2,0.3,0.5,0.4,0.8,0.4h5V52c0,0.6,0.4,1,1,1h35.6c0.6,0,1-0.4,1-1v-3.6h3.6c0.3,0,0.6-0.2,0.8-0.4 C52.1,47.7,52.2,47.4,52.1,47.1z M21.8,40.1l0.7-4.7h10.9l0.7,4.7H21.8z M34.3,42.1l0.6,4.4h-14l0.6-4.4H34.3z M10.5,35.4h9.9 l-0.7,4.7h-11L10.5,35.4z M22.7,33.4l0.4-2.7h9.5l0.4,2.7H22.7z M35.3,35.4h10.1l1.8,4.7H36L35.3,35.4z M44.7,33.4h-9.7l-0.4-2.7h9 L44.7,33.4z M12.3,30.7h8.8l-0.4,2.7h-9.4L12.3,30.7z M8,42.1h11.5l-0.6,4.4H6.3L8,42.1z M45.5,51H11.9v-2.6h7.8c0,0,0,0,0.1,0 c0,0,0,0,0,0H36c0,0,0,0,0,0c0,0,0,0,0.1,0h9.4V51z M36.9,46.4l-0.6-4.4H48l1.7,4.4H36.9z"></path> <path d="M17,16h2.5c0.2,1.6,0.8,3,1.8,4.3L19.5,22c-0.4,0.4-0.4,1,0,1.4c0.2,0.2,0.5,0.3,0.7,0.3s0.5-0.1,0.7-0.3l1.8-1.8 c1.2,1,2.7,1.6,4.3,1.8v2.5c0,0.6,0.4,1,1,1s1-0.4,1-1v-2.5c1.6-0.2,3-0.8,4.3-1.8l1.8,1.8c0.2,0.2,0.5,0.3,0.7,0.3 s0.5-0.1,0.7-0.3c0.4-0.4,0.4-1,0-1.4l-1.8-1.8c1-1.2,1.6-2.7,1.8-4.3H39c0.6,0,1-0.4,1-1s-0.4-1-1-1h-2.5 c-0.2-1.6-0.8-3.1-1.8-4.3l1.8-1.8c0.4-0.4,0.4-1,0-1.4s-1-0.4-1.4,0l-1.8,1.8c-1.2-1-2.7-1.6-4.3-1.8V4c0-0.6-0.4-1-1-1 s-1,0.4-1,1v2.5c-1.6,0.2-3.1,0.8-4.3,1.8l-1.8-1.8c-0.4-0.4-1-0.4-1.4,0s-0.4,1,0,1.4l1.8,1.8c-1,1.2-1.6,2.7-1.8,4.3H17 c-0.6,0-1,0.4-1,1S16.5,16,17,16z M28,8.4C28,8.4,28,8.4,28,8.4C28,8.4,28,8.4,28,8.4c3.6,0,6.6,2.9,6.6,6.5c0,1.7-0.7,3.4-1.9,4.6 c-1.2,1.2-2.9,1.9-4.6,1.9s-3.4-0.7-4.6-1.9c-1.2-1.2-1.9-2.9-1.9-4.6C21.5,11.4,24.4,8.4,28,8.4z"></path> </g> </g></svg>