<svg fill="#0e8281" version="1.1" id="Layer_1" xmlns="http://www.w3.org/2000/svg" xmlns:xlink="http://www.w3.org/1999/xlink" viewBox="0 0 493.66 493.66" xml:space="preserve" width="123px" height="123px" stroke="#0e8281" stroke-width="3.455592"><g id="SVGRepo_bgCarrier" stroke-width="0"></g><g id="SVGRepo_tracerCarrier" stroke-linecap="round" stroke-linejoin="round"></g><g id="SVGRepo_iconCarrier"> <g> <g> <g> <path d="M215.952,248.048l-0.36-0.352l-39.648,40.352l11.408,11.216L227,258.912l-0.048-0.048c3.144,1.52,6.624,2.44,10.344,2.44 c13.232,0,24-10.768,24-24c0-3.72-0.92-7.2-2.44-10.344l0.048,0.048l40.352-39.648l-11.216-11.408L247.688,215.6l0.352,0.36 c-1.448-0.728-2.968-1.32-4.56-1.744L203.616,164.4c1.296-4.712,2.04-9.64,2.04-14.744c0-5.2-0.768-10.216-2.104-15 l39.928-49.904c1.56-0.416,3.048-0.984,4.464-1.696l-0.28,0.28l40.352,40l11.264-11.36l-40.352-40l-0.128,0.128 c1.56-3.168,2.504-6.688,2.504-10.448c0-13.232-10.768-24-24-24c-3.76,0-7.28,0.944-10.448,2.496l0.128-0.128l-39.648-40 l-11.36,11.264l39.648,40l0.28-0.28c-0.712,1.416-1.272,2.904-1.696,4.464L164.056,95.6c-4.6-1.224-9.416-1.944-14.4-1.944 c-5.08,0-9.984,0.744-14.672,2.016l-50.24-40.2c-0.408-1.528-0.952-2.976-1.64-4.368l0.208,0.208l40-40L112,0L72,40l0.208,0.208 c-3.2-1.584-6.752-2.552-10.552-2.552c-13.232,0-24,10.768-24,24c0,3.8,0.968,7.352,2.552,10.552L40,72L0,112l11.312,11.312 l40-40l-0.208-0.208c1.392,0.688,2.848,1.232,4.368,1.64l40.2,50.24c-1.272,4.688-2.016,9.592-2.016,14.672 c0,4.984,0.72,9.8,1.944,14.408l-40.128,50.152c-1.56,0.416-3.048,0.984-4.464,1.696l0.28-0.28l-40-39.648l-11.264,11.36 l40,39.648l0.128-0.128c-1.552,3.16-2.496,6.68-2.496,10.44c0,13.232,10.768,24,24,24c3.76,0,7.28-0.944,10.448-2.496 l-0.128,0.128l40,40.352l11.36-11.264l-40-40.352l-0.28,0.28c0.712-1.416,1.272-2.904,1.696-4.464l49.904-39.928 c4.784,1.328,9.8,2.096,15,2.096c5.104,0,10.032-0.744,14.736-2.032l49.816,39.864C214.64,245.088,215.224,246.6,215.952,248.048 z M237.304,229.304c4.416,0,8,3.584,8,8c0,4.416-3.584,8-8,8s-8-3.584-8-8C229.304,232.888,232.888,229.304,237.304,229.304z M237.304,53.656c4.416,0,8,3.584,8,8s-3.584,8-8,8s-8-3.584-8-8S232.888,53.656,237.304,53.656z M61.656,69.656 c-4.416,0-8-3.584-8-8s3.584-8,8-8s8,3.584,8,8S66.072,69.656,61.656,69.656z M61.656,245.304c-4.416,0-8-3.584-8-8 c0-4.416,3.584-8,8-8s8,3.584,8,8C69.656,241.72,66.072,245.304,61.656,245.304z M216.784,73.92 c2.04,3.392,4.864,6.224,8.256,8.256l-28.96,36.2c-4.128-6.104-9.44-11.336-15.592-15.416L216.784,73.92z M73.92,82.176 c3.392-2.04,6.224-4.864,8.256-8.256l36.448,29.16c-6.144,4.112-11.432,9.4-15.544,15.544L73.92,82.176z M82.176,225.04 c-2.04-3.392-4.864-6.224-8.256-8.256l29.04-36.296c4.072,6.152,9.304,11.464,15.416,15.592L82.176,225.04z M149.656,189.656 c-22.056,0-40-17.944-40-40c0-22.056,17.944-40,40-40c22.056,0,40,17.944,40,40C189.656,171.712,171.712,189.656,149.656,189.656 z M196.2,180.736l28.84,36.048c-3.392,2.04-6.224,4.864-8.256,8.256l-36.048-28.84 C186.848,192.104,192.104,186.848,196.2,180.736z"></path> <path d="M471.584,282.096c-15.52-45.848-57.864-76.44-106.592-76.44H350.32c-48.728,0-91.072,30.592-106.592,76.44 c-13.032,6.6-22.072,19.984-22.072,35.56h-16v16h16v32c0,12.616,7.392,23.44,18.024,28.648 c9.92,56.944,59.736,99.352,117.976,99.352s108.056-42.408,117.976-99.352c10.632-5.208,18.024-16.032,18.024-28.648v-48 C493.656,302.08,484.616,288.696,471.584,282.096z M350.32,221.656h14.672c38.312,0,72.024,22.048,87.648,56H262.672 C278.296,243.704,312.008,221.656,350.32,221.656z M357.656,477.656c-48.376,0-90.12-33.736-101.064-80h38.224 c12.2,0,23.168-6.784,28.624-17.688l7.16-14.312h54.112l7.16,14.312c5.448,10.904,16.416,17.688,28.616,17.688h38.224 C447.776,443.92,406.032,477.656,357.656,477.656z M477.656,365.656c0,8.824-7.176,16-16,16h-41.168 c-6.104,0-11.584-3.392-14.312-8.84l-11.576-23.16h-73.888l-11.576,23.16c-2.728,5.448-8.216,8.84-14.312,8.84h-41.168 c-8.824,0-16-7.176-16-16v-48c0-13.232,10.768-24,24-24h192c13.232,0,24,10.768,24,24V365.656z"></path> <rect x="253.656" y="309.656" width="176" height="16"></rect> <rect x="445.656" y="309.656" width="16" height="16"></rect> <path d="M357.656,437.656c-38.336,0-56.52-27.184-57.28-28.344l-13.456,8.656c0.928,1.464,23.408,35.688,70.736,35.688 s69.808-34.224,70.736-35.688l-13.456-8.656C414.176,410.472,395.992,437.656,357.656,437.656z"></path> <rect x="365.656" y="173.656" width="16" height="16"></rect> <rect x="365.656" y="141.656" width="16" height="16"></rect> <rect x="365.656" y="109.656" width="16" height="16"></rect> <rect x="365.656" y="77.656" width="16" height="16"></rect> <rect x="141.656" y="285.656" width="16" height="16"></rect> <rect x="141.656" y="253.656" width="16" height="16"></rect> <rect x="141.656" y="221.656" width="16" height="16"></rect> <rect x="365.656" y="45.656" width="16" height="16"></rect> <rect x="333.656" y="45.656" width="16" height="16"></rect> <rect x="301.656" y="45.656" width="16" height="16"></rect> <rect x="269.656" y="45.656" width="16" height="16"></rect> <rect x="141.656" y="317.656" width="16" height="16"></rect> <rect x="173.656" y="317.656" width="16" height="16"></rect> </g> </g> </g> </g></svg>