<svg fill="#0e8281" height="85px" width="85px" version="1.1" id="Capa_1" xmlns="http://www.w3.org/2000/svg" xmlns:xlink="http://www.w3.org/1999/xlink" viewBox="0 0 511 511" xml:space="preserve" stroke="#0e8281" stroke-width="5.11"><g id="SVGRepo_bgCarrier" stroke-width="0"></g><g id="SVGRepo_tracerCarrier" stroke-linecap="round" stroke-linejoin="round"></g><g id="SVGRepo_iconCarrier"> <g> <path d="M455.5,92H351V59.5c0-21.78-17.72-39.5-39.5-39.5h-112C177.72,20,160,37.72,160,59.5V92H55.5C24.897,92,0,116.897,0,147.5 v288C0,466.103,24.897,491,55.5,491h400c30.603,0,55.5-24.897,55.5-55.5v-288C511,116.897,486.103,92,455.5,92z M391,107h33v8.5 c0,4.687-3.813,8.5-8.5,8.5h-16c-4.687,0-8.5-3.813-8.5-8.5V107z M175,59.5c0-13.509,10.991-24.5,24.5-24.5h112 c13.509,0,24.5,10.991,24.5,24.5V92H175V59.5z M87,107h33v8.5c0,4.687-3.813,8.5-8.5,8.5h-16c-4.687,0-8.5-3.813-8.5-8.5V107z M496,435.5c0,22.332-18.168,40.5-40.5,40.5h-400C33.168,476,15,457.832,15,435.5v-288c0-22.332,18.168-40.5,40.5-40.5H72v8.5 c0,12.958,10.542,23.5,23.5,23.5h16c12.958,0,23.5-10.542,23.5-23.5V107h241v8.5c0,12.958,10.542,23.5,23.5,23.5h16 c12.958,0,23.5-10.542,23.5-23.5V107h16.5c22.332,0,40.5,18.168,40.5,40.5V435.5z"></path> <path d="M455.5,220H391v-8.5c0-4.142-3.358-7.5-7.5-7.5s-7.5,3.358-7.5,7.5v8.5h-64.5c-4.142,0-7.5,3.358-7.5,7.5 s3.358,7.5,7.5,7.5H376v10.234c-9.29,3.138-16,11.93-16,22.266v8.5h-18.234c-3.138-9.29-11.93-16-22.266-16h-128 c-10.336,0-19.128,6.71-22.266,16H151v-8.5c0-10.336-6.71-19.128-16-22.266V235h64.5c4.142,0,7.5-3.358,7.5-7.5s-3.358-7.5-7.5-7.5 H135v-8.5c0-4.142-3.358-7.5-7.5-7.5s-7.5,3.358-7.5,7.5v8.5H55.5c-4.142,0-7.5,3.358-7.5,7.5s3.358,7.5,7.5,7.5H120v10.234 c-9.29,3.138-16,11.93-16,22.266v32c0,12.958,10.542,23.5,23.5,23.5s23.5-10.542,23.5-23.5V291h18.234 c3.138,9.29,11.93,16,22.266,16h8.5v9.085c-13.522,0.952-24.991,10.456-28.321,23.775c-0.103,0.412-0.171,0.832-0.203,1.255 L168.544,380H159.5c-4.142,0-7.5,3.358-7.5,7.5s3.358,7.5,7.5,7.5h15.995c0.004,0,0.009,0,0.013,0c0.003,0,0.007,0,0.01,0H191.5 c4.142,0,7.5-3.358,7.5-7.5s-3.358-7.5-7.5-7.5h-7.913l2.794-37.062c1.936-6.74,7.897-11.483,14.867-11.898 C204.398,340.31,213.179,347,223.5,347h64c10.321,0,19.102-6.69,22.252-15.959c6.97,0.415,12.931,5.158,14.867,11.898L327.413,380 H319.5c-4.142,0-7.5,3.358-7.5,7.5s3.358,7.5,7.5,7.5h15.982c0.003,0,0.007,0,0.01,0c0.004,0,0.009,0,0.013,0H351.5 c4.142,0,7.5-3.358,7.5-7.5s-3.358-7.5-7.5-7.5h-9.044l-2.932-38.885c-0.032-0.423-0.1-0.843-0.203-1.255 c-3.329-13.319-14.799-22.823-28.321-23.775V307h8.5c10.336,0,19.128-6.71,22.266-16H360v8.5c0,12.958,10.542,23.5,23.5,23.5 s23.5-10.542,23.5-23.5v-32c0-10.336-6.71-19.128-16-22.266V235h64.5c4.142,0,7.5-3.358,7.5-7.5S459.642,220,455.5,220z M136,299.5 c0,4.687-3.813,8.5-8.5,8.5s-8.5-3.813-8.5-8.5v-32c0-4.687,3.813-8.5,8.5-8.5s8.5,3.813,8.5,8.5V299.5z M319.5,292h-16h-16 c-4.142,0-7.5,3.358-7.5,7.5s3.358,7.5,7.5,7.5h8.5v16.5c0,4.687-3.813,8.5-8.5,8.5h-64c-4.687,0-8.5-3.813-8.5-8.5V307h40.5 c4.142,0,7.5-3.358,7.5-7.5s-3.358-7.5-7.5-7.5h-48h-16c-4.687,0-8.5-3.813-8.5-8.5s3.813-8.5,8.5-8.5h128 c4.687,0,8.5,3.813,8.5,8.5S324.187,292,319.5,292z M392,299.5c0,4.687-3.813,8.5-8.5,8.5s-8.5-3.813-8.5-8.5v-32 c0-4.687,3.813-8.5,8.5-8.5s8.5,3.813,8.5,8.5V299.5z"></path> <path d="M455.5,444h-400c-4.142,0-7.5,3.358-7.5,7.5s3.358,7.5,7.5,7.5h400c4.142,0,7.5-3.358,7.5-7.5S459.642,444,455.5,444z"></path> </g> </g></svg>