<svg fill="#0e8281" height="120px" width="120px" version="1.1" id="Layer_1" xmlns="http://www.w3.org/2000/svg" xmlns:xlink="http://www.w3.org/1999/xlink" viewBox="0 0 512 512" xml:space="preserve" stroke="#0e8281" stroke-width="1.536" transform="rotate(0)"><g id="SVGRepo_bgCarrier" stroke-width="0"></g><g id="SVGRepo_tracerCarrier" stroke-linecap="round" stroke-linejoin="round" stroke="#CCCCCC" stroke-width="1.024"></g><g id="SVGRepo_iconCarrier"> <g> <g> <path d="M244.646,117.342c-0.134-0.712-0.356-1.414-0.634-2.081c-0.278-0.679-0.623-1.325-1.024-1.926 c-0.4-0.612-0.867-1.18-1.38-1.692c-0.512-0.512-1.08-0.979-1.692-1.38c-0.601-0.401-1.247-0.746-1.926-1.024 c-0.668-0.278-1.368-0.501-2.08-0.634c-3.606-0.735-7.457,0.456-10.041,3.039c-0.512,0.512-0.979,1.08-1.38,1.692 c-0.412,0.601-0.746,1.247-1.024,1.926c-0.278,0.668-0.501,1.369-0.633,2.081c-0.146,0.712-0.223,1.447-0.223,2.17 c0,2.927,1.19,5.799,3.261,7.869c2.071,2.07,4.942,3.261,7.869,3.261c0.722,0,1.458-0.078,2.17-0.223 c0.712-0.134,1.414-0.356,2.08-0.634c0.679-0.278,1.325-0.623,1.926-1.024c0.612-0.401,1.18-0.868,1.692-1.38 c0.513-0.512,0.981-1.08,1.38-1.692c0.401-0.601,0.746-1.247,1.024-1.914c0.278-0.679,0.501-1.38,0.634-2.093 c0.145-0.712,0.223-1.447,0.223-2.17S244.791,118.054,244.646,117.342z"></path> </g> </g> <g> <g> <path d="M500.87,166.817v-55.652c0-6.147-4.984-11.13-11.13-11.13h-11.13V55.512h22.261c6.146,0,11.13-4.983,11.13-11.13 s-4.984-11.13-11.13-11.13h-22.261v-11.13c0-6.147-4.984-11.13-11.13-11.13s-11.13,4.983-11.13,11.13v11.13h-22.261 c-6.146,0-11.13,4.983-11.13,11.13s4.984,11.13,11.13,11.13h22.261v44.522h-11.13c-6.146,0-11.13,4.983-11.13,11.13v55.652 h-14.238l-4.107-12.321c-9.195-27.581-34.904-46.113-63.978-46.113h-84.262c-6.146,0-11.13,4.983-11.13,11.13 s4.984,11.13,11.13,11.13h84.262c19.476,0,36.7,12.414,42.86,30.891l4.522,13.57c2.786,8.358,10.577,13.973,19.387,13.973h26.684 h44.522v22.261h-72.933c-6.849,0-13.205,3.403-17.002,9.099c-8.399,12.597-22.451,20.118-37.591,20.118h-17.17 c-5.025,0-9.427,3.367-10.742,8.218l-9.795,36.118c-5.782,21.326-24.702,36.472-46.568,37.666h-43.878 c-21.866-1.194-40.784-16.341-46.568-37.667l-9.795-36.118c-1.316-4.85-5.718-8.218-10.742-8.218h-17.169 c-7.576,0-14.88-1.884-21.34-5.345c-0.114-0.068-0.228-0.134-0.345-0.198c-6.301-3.447-11.786-8.395-15.905-14.573 c-3.798-5.699-10.154-9.101-17.003-9.101H22.261v-22.261h44.522h26.685c8.81,0,16.601-5.615,19.386-13.972l4.525-13.571 c6.158-18.478,23.383-30.891,42.859-30.891h40.111c6.146,0,11.13-4.983,11.13-11.13s-4.984-11.13-11.13-11.13h-40.111 c-29.074,0-54.784,18.531-63.977,46.112l-4.108,12.323H77.913v-55.652c0-6.147-4.984-11.13-11.13-11.13h-11.13V55.512h22.261 c6.146,0,11.13-4.983,11.13-11.13s-4.984-11.13-11.13-11.13H55.652v-11.13c0-6.147-4.984-11.13-11.13-11.13 c-6.146,0-11.13,4.983-11.13,11.13v11.13H11.13C4.984,33.252,0,38.235,0,44.382s4.984,11.13,11.13,11.13h22.261v44.522h-11.13 c-6.146,0-11.13,4.983-11.13,11.13v55.652C4.984,166.817,0,171.8,0,177.947v44.522c0,6.147,4.984,11.13,11.13,11.13h83.094 c4.221,6.138,9.355,11.439,15.15,15.78l-19.748,58.577c-0.386,1.146-0.583,2.346-0.583,3.556v178.087 c0,6.147,4.984,11.13,11.13,11.13c6.146,0,11.13-4.983,11.13-11.13V313.338l18.091-53.665c6.505,2.058,13.37,3.144,20.392,3.144 h8.654l7.567,27.901c7.382,27.224,29.679,47.429,56.6,52.775v12.542h-33.391c-6.146,0-11.13,4.983-11.13,11.13v100.174 c0,6.147,4.984,11.13,11.13,11.13h133.565c6.146,0,11.13-4.983,11.13-11.13V367.165c0-6.147-4.984-11.13-11.13-11.13h-33.391 v-12.542c26.921-5.346,49.218-25.551,56.6-52.775l7.566-27.901h8.654c7.063,0,13.968-1.101,20.506-3.182l18.106,53.703v142.87 c0,6.147,4.984,11.13,11.13,11.13c6.146,0,11.13-4.983,11.13-11.13V311.512c0-1.209-0.197-2.411-0.583-3.556l-19.774-58.654 c5.753-4.328,10.853-9.601,15.049-15.703h83.093c6.146,0,11.13-4.983,11.13-11.13v-44.522 C512,171.8,507.016,166.817,500.87,166.817z M478.609,166.817h-22.261v-44.522h22.261V166.817z M33.391,122.295h22.261v44.522 H33.391V122.295z M244.87,344.904h22.261v11.13H244.87V344.904z M311.652,378.295v77.913H200.348v-77.913h33.391h44.522H311.652z"></path> </g> </g> <g> <g> <path d="M411.953,478.562c-6.146,0-11.13,4.983-11.13,11.13v0.186c0,6.147,4.984,11.13,11.13,11.13s11.13-4.983,11.13-11.13 v-0.186C423.083,483.546,418.1,478.562,411.953,478.562z"></path> </g> </g> <g> <g> <path d="M278.261,394.991c-12.275,0-22.261,9.986-22.261,22.261s9.986,22.261,22.261,22.261s22.261-9.986,22.261-22.261 S290.536,394.991,278.261,394.991z"></path> </g> </g> </g></svg>