<svg fill="#0e8281" height="85px" width="85px" version="1.1" id="Layer_1" xmlns="http://www.w3.org/2000/svg" xmlns:xlink="http://www.w3.org/1999/xlink" viewBox="0 0 512 512" xml:space="preserve" stroke="#0e8281" stroke-width="0.00512"><g id="SVGRepo_bgCarrier" stroke-width="0"></g><g id="SVGRepo_tracerCarrier" stroke-linecap="round" stroke-linejoin="round"></g><g id="SVGRepo_iconCarrier"> <g> <g> <g> <path d="M472.504,153.986H273.799l28.992-35.937c2.269-2.813,2.963-6.582,1.848-10.019c-1.117-3.438-3.895-6.078-7.383-7.019 l-47.5-12.821l2.485-49.137c0.182-3.609-1.47-7.066-4.394-9.191c-2.925-2.124-6.724-2.627-10.099-1.34l-45.965,17.547 L164.911,4.854C162.935,1.825,159.566,0,155.951,0s-6.984,1.825-8.957,4.853l-26.873,41.214L74.156,28.519 c-3.378-1.289-7.175-0.785-10.099,1.34c-2.924,2.124-4.577,5.582-4.394,9.191l2.484,49.137l-47.5,12.821 c-3.489,0.942-6.266,3.582-7.384,7.019c-1.116,3.437-0.422,7.205,1.848,10.019l30.892,38.293L9.11,194.632 c-2.269,2.813-2.964,6.582-1.848,10.019c1.116,3.438,3.895,6.078,7.384,7.019l47.5,12.821l-2.484,49.139 c-0.182,3.609,1.47,7.066,4.394,9.191c2.924,2.125,6.723,2.626,10.099,1.34l45.965-17.548l25.136,38.551V479.37 c0,17.992,14.696,32.63,32.759,32.63h294.487c18.063,0,32.759-14.637,32.759-32.63V186.616 C505.263,168.623,490.567,153.986,472.504,153.986z M335.954,175.372h63.268v62.769h-63.268V175.372z M335.954,259.529h63.268 v62.771h-63.268V259.529z M229.912,490.612h-51.895c-6.271,0.001-11.372-5.043-11.372-11.242v-51.527h63.268V490.612z M229.912,406.456h-63.268v-62.769h63.268V406.456z M166.645,322.299v-17.135l25.136-38.551l38.132,14.557v41.129H166.645z M227.961,216.957l2.093,41.374l-38.703-14.775c-4.702-1.791-10.022-0.066-12.771,4.15l-22.627,34.702l-22.627-34.702 c-2.021-3.1-5.429-4.854-8.961-4.854c-1.274,0-2.564,0.229-3.81,0.704l-38.703,14.775l2.092-41.374 c0.255-5.028-3.033-9.552-7.893-10.863l-39.996-10.796l26.012-32.242c3.161-3.918,3.161-9.511,0-13.43l-26.012-32.243 l39.996-10.796c4.86-1.312,8.147-5.835,7.893-10.863l-2.092-41.373l38.703,14.774c4.704,1.793,10.023,0.067,12.771-4.15 l22.627-34.702l22.627,34.702c2.749,4.216,8.066,5.942,12.771,4.15l38.703-14.774l-2.093,41.373 c-0.255,5.027,3.033,9.552,7.893,10.863l39.996,10.796l-26.012,32.244c-3.161,3.918-3.161,9.511,0,13.429l26.011,32.242 l-39.995,10.796C230.993,207.406,227.706,211.93,227.961,216.957z M314.567,490.613h-63.268v-62.769h63.268V490.613z M314.567,406.456h-63.268v-62.769h63.268V406.456z M314.567,322.299h-63.268l0.228-62.771h63.04V322.299z M314.567,238.142 h-63.268v-14.066l45.957-12.405c3.489-0.942,6.265-3.582,7.383-7.019c1.116-3.437,0.422-7.205-1.848-10.019l-15.538-19.26h27.313 V238.142z M399.222,490.613h-63.268v-62.769h63.268V490.613z M483.876,479.37c0,6.199-5.102,11.243-11.372,11.243h-51.895 v-62.769h63.268V479.37z M483.876,406.457H335.954v-62.769h147.922V406.457z M483.876,322.299h-63.268v-62.771h63.268V322.299z M483.876,238.143h-63.268v-62.771h51.895c6.271,0,11.372,5.044,11.372,11.243V238.143z"></path> <path d="M409.915,386.3c5.905,0,10.693-4.789,10.693-10.693v-1.069c0-5.905-4.789-10.693-10.693-10.693 c-5.905,0-10.693,4.789-10.693,10.693v1.069C399.222,381.511,404.01,386.3,409.915,386.3z"></path> <path d="M155.951,74.25c-45.264,0-82.089,36.826-82.089,82.09c0,45.264,36.825,82.089,82.089,82.089s82.089-36.825,82.089-82.089 S201.215,74.25,155.951,74.25z M155.951,217.043c-33.472,0-60.702-27.231-60.702-60.702s27.231-60.703,60.702-60.703 s60.702,27.232,60.702,60.703C216.654,189.812,189.423,217.043,155.951,217.043z"></path> </g> </g> </g> </g></svg>